# xmcd CD database file
#
# Track frame offsets:
#	150
#	25408
#	50008
#	72113
#	100585
#	126288
#	153560
#	186900
#
# Disc length: 2871 seconds
#
# Revision: 0
# Processed by: cddbd v1.5.2PL0 Copyright (c) Steve Scherf et al.
# Submitted via: CDex 1.79
#
DISCID=6b0b3508
DTITLE=Aaron Heick - Daylight and Darkness
DYEAR=2009
DGENRE=Jazz
TTITLE0=Cool
TTITLE1=Tuk-Tuk
TTITLE2=Desert Lullaby
TTITLE3=Daylight Stars
TTITLE4=Drifting Upstream
TTITLE5=Another Day Gone By
TTITLE6=Palace of Sorrow
TTITLE7=Heart of Darkness
EXTD=YEAR: 2009
EXTT0=
EXTT1=
EXTT2=
EXTT3=
EXTT4=
EXTT5=
EXTT6=
EXTT7=
PLAYORDER=
